HIERARCHY
ROOT Hips
{
	OFFSET 0.00000 0.00000 0.00000
	CHANNELS 6 Xposition Yposition Zposition Zrotation Yrotation Xrotation 
	JOINT LHipJoint
	{
		OFFSET 0 0 0
		CHANNELS 3 Zrotation Yrotation Xrotation
		JOINT LeftHip
		{
			OFFSET 1.33213 -1.58186 0.78596
			CHANNELS 3 Zrotation Yrotation Xrotation
			JOINT LeftKnee
			{
				OFFSET 2.29717 -6.31144 0.00000
				CHANNELS 3 Zrotation Yrotation Xrotation
				JOINT LeftAnkle
				{
					OFFSET 2.38430 -6.55082 0.00000
					CHANNELS 3 Zrotation Yrotation Xrotation
					JOINT LeftToe
					{
						OFFSET 0.11863 -0.32594 1.77568
						CHANNELS 3 Zrotation Yrotation Xrotation
						End Site
						{
							OFFSET 0.00000 -0.00000 0.91633
						}
					}
				}
			}
		}
	}
	JOINT RHipJoint
	{
		OFFSET 0 0 0
		CHANNELS 3 Zrotation Yrotation Xrotation
		JOINT RightHip
		{
			OFFSET -1.41575 -1.58186 0.78596
			CHANNELS 3 Zrotation Yrotation Xrotation
			JOINT RightKnee
			{
				OFFSET -2.42012 -6.64922 0.00000
				CHANNELS 3 Zrotation Yrotation Xrotation
				JOINT RightAnkle
				{
					OFFSET -2.47254 -6.79327 0.00000
					CHANNELS 3 Zrotation Yrotation Xrotation
					JOINT RightToe
					{
						OFFSET -0.15219 -0.41813 1.93430
						CHANNELS 3 Zrotation Yrotation Xrotation
						End Site
						{
							OFFSET -0.00000 -0.00000 0.99984
						}
					}
				}
			}
		}
	}
	JOINT lowerback
	{
		OFFSET 0 0 0
		CHANNELS 3 Zrotation Yrotation Xrotation
		JOINT Chest
		{
			OFFSET -0.04717 2.09389 -0.14516
			CHANNELS 3 Zrotation Yrotation Xrotation
			JOINT Chest2
			{
				OFFSET 0.02825 2.09433 -0.11325
				CHANNELS 3 Zrotation Yrotation Xrotation
				JOINT lowerneck
				{
					OFFSET 0 0 0
					CHANNELS 3 Zrotation Yrotation Xrotation
					JOINT Neck
					{
						OFFSET -0.01210 1.39029 0.12448
						CHANNELS 3 Zrotation Yrotation Xrotation
						JOINT Head
						{
							OFFSET 0.09492 1.38365 0.14559
							CHANNELS 3 Zrotation Yrotation Xrotation
							End Site
							{
								OFFSET 0.03402 1.40343 0.03708
							}
						}
					}
				}
				JOINT LeftCollar
				{
					OFFSET 0 0 0
					CHANNELS 3 Zrotation Yrotation Xrotation
					JOINT LeftShoulder
					{
						OFFSET 2.83352 1.10671 -0.20481
CHANNELS 3 Zrotation Xrotation Yrotation
						JOINT LeftElbow
						{
OFFSET 0 -4.771950 -0.000000
CHANNELS 3 Zrotation Xrotation Yrotation
							JOINT LeftWrist
							{
OFFSET 0 -2.984440 0.000000
CHANNELS 3 Zrotation Xrotation Yrotation
								JOINT lhand
								{
									OFFSET 0 0 0
CHANNELS 3 Zrotation Xrotation Yrotation
									JOINT LFingers
									{
OFFSET 0 -0.992280 0.000000
CHANNELS 3 Zrotation Xrotation Yrotation
										End Site
										{
OFFSET 0 -0.800010 0.000000
										}
									}
								}
								JOINT LThumb
								{
OFFSET 0 0.000000 0.000000
CHANNELS 3 Zrotation Xrotation Yrotation
									End Site
									{
OFFSET 0 -0.812220 0.812220
									}
								}
							}
						}
					}
				}
				JOINT RightCollar
				{
					OFFSET 0 0 0
					CHANNELS 3 Zrotation Yrotation Xrotation
					JOINT RightShoulder
					{
						OFFSET -3.23760 1.11106 0.06723
CHANNELS 3 Zrotation Xrotation Yrotation
						JOINT RightElbow
						{
OFFSET 0 -4.620520 0.000000
CHANNELS 3 Zrotation Xrotation Yrotation
							JOINT RightWrist
							{
OFFSET 0 -2.953320 0.000000
CHANNELS 3 Zrotation Xrotation Yrotation
								JOINT rhand
								{
									OFFSET 0 0 0
CHANNELS 3 Zrotation Xrotation Yrotation
									JOINT RFingers
									{
OFFSET 0 -0.990960 0.000000
CHANNELS 3 Zrotation Xrotation Yrotation
										End Site
										{
OFFSET 0 -0.798930 0.000000
										}
									}
								}
								JOINT RThumb
								{
OFFSET 0 0.000000 0.000000
CHANNELS 3 Zrotation Xrotation Yrotation
									End Site
									{
OFFSET 0 -0.811130 0.811130
									}
								}
							}
						}
					}
				}
			}
		}
	}
}
MOTION
Frames: 8
Frame Time: 0.008333333333333333
0.006142 16.314709 -3.236717 -180.636806 -36.686191 -173.628786 0.000000 0.000000 0.000000 -22.091995 -3.501412 -25.884030 1.270964 7.145252 20.146490 -0.238087 -10.170589 9.546682 0.228874 3.070943 8.477080 0.000000 0.000000 0.000000 19.824572 -3.696644 -6.692547 -6.533548 -14.900988 47.041676 0.137737 9.406352 -3.531178 -0.386113 -3.952776 10.948558 -4.283674 -0.577918 -11.928497 -0.340775 -0.101925 2.129025 2.033774 -0.269119 9.010381 -5.411803 -0.840823 -0.971053 8.082196 -1.540648 5.692535 3.590397 -0.763465 2.128411 0.000000 0.000000 0.000000 -0.767705 0.013790 8.147239 7.196829 -12.242440 0.773242 7.184823 46.832314 -8.122308 0.000000 0.000000 0.000000 -7.125000 0.000000 0.000000 -16.698495 37.663841 -3.118904 0.000000 0.000000 0.000000 1.586487 2.221365 0.093209 -12.730032 -20.890258 -2.356272 -0.144093 36.396609 4.829858 0.000000 0.000000 0.000000 7.125000 0.000000 0.000000 21.535578 34.120163 6.119454
-0.148112 16.340645 -3.357957 -180.444209 -36.753499 -173.801371 0.000000 0.000000 0.000000 -22.386041 -2.412241 -25.373945 1.265309 7.129910 20.100883 -0.326698 -11.296203 9.649075 0.288356 3.448207 9.529739 0.000000 0.000000 0.000000 19.434861 -3.827723 -9.137789 -7.678085 -15.857906 51.362748 0.131756 7.201291 -0.522761 -0.592087 -4.898963 13.626023 -3.885599 -0.633870 -11.695107 -0.285739 -0.252858 2.087042 1.839596 -0.317770 8.836257 -5.353209 -0.853596 -0.888572 7.957318 -1.536199 5.467039 3.532236 -0.762818 2.035334 0.000000 0.000000 0.000000 -0.650797 0.268581 4.977976 7.485478 -12.715237 0.835489 6.866806 44.069263 -8.543812 0.000000 0.000000 0.000000 -7.125000 0.000000 0.000000 -17.062262 38.048009 -3.026435 0.000000 0.000000 0.000000 1.273819 2.738742 0.608070 -12.911173 -21.156756 -2.421262 0.125546 35.820486 4.813823 0.000000 0.000000 0.000000 7.125000 0.000000 0.000000 21.740897 34.090445 6.202511
-0.293581 16.366176 -3.484216 -180.792344 -36.727677 -173.730785 0.000000 0.000000 0.000000 -23.049671 -1.479186 -24.579883 1.236247 7.050573 19.865417 -0.402960 -12.159660 9.636936 0.345076 3.772516 10.437703 0.000000 0.000000 0.000000 18.621976 -3.832201 -11.474405 -8.841693 -16.692751 55.523197 0.074271 4.913552 2.192625 -0.837581 -5.822534 16.274771 -4.063370 -0.714064 -11.428895 -0.329029 -0.343329 2.103284 1.877057 -0.367672 8.707035 -5.234751 -0.870898 -0.782120 7.839107 -1.539071 5.197057 3.464416 -0.765443 1.923240 0.000000 0.000000 0.000000 -0.572368 0.331345 2.818307 7.730553 -13.115114 0.890092 6.794043 42.370211 -8.644474 0.000000 0.000000 0.000000 -7.125000 0.000000 0.000000 -17.147235 38.139553 -3.002614 0.000000 0.000000 0.000000 0.950720 3.199187 1.401175 -13.121609 -21.464957 -2.497775 0.299478 35.127923 4.763088 0.000000 0.000000 0.000000 7.125000 0.000000 0.000000 21.862973 34.033757 6.274508
-0.431318 16.385636 -3.608888 -180.994801 -36.568605 -173.763553 0.000000 0.000000 0.000000 -23.459620 -0.756696 -23.643868 1.195013 6.936392 19.527216 -0.460036 -12.718500 9.459922 0.397241 4.044331 11.201669 0.000000 0.000000 0.000000 18.021283 -3.598030 -13.731404 -9.979341 -17.393643 59.413229 -0.010195 2.515672 4.261168 -1.066474 -6.564323 18.431187 -4.114917 -0.688688 -11.190148 -0.394496 -0.307629 2.172204 1.843465 -0.351281 8.641575 -5.107986 -0.909211 -0.753587 7.850083 -1.579705 4.967587 3.440512 -0.783968 1.843947 0.000000 0.000000 0.000000 -0.346229 0.169077 0.756181 7.886076 -13.367993 0.925600 7.047483 40.955080 -8.478106 0.000000 0.000000 0.000000 -7.125000 0.000000 0.000000 -16.896758 37.997415 -3.016587 0.000000 0.000000 0.000000 0.804727 3.528074 1.982082 -13.352717 -21.801769 -2.582859 0.370343 34.581722 4.692500 0.000000 0.000000 0.000000 7.125000 0.000000 0.000000 21.900099 33.964313 6.326379
-0.563066 16.397847 -3.732142 -181.440745 -36.494635 -173.832568 0.000000 0.000000 0.000000 -24.048282 -0.057609 -22.481230 1.149446 6.807476 19.146306 -0.514274 -13.248500 9.342242 0.480766 4.445768 12.334489 0.000000 0.000000 0.000000 17.267250 -3.458496 -15.758234 -11.022353 -17.945056 62.853008 -0.033908 0.724378 3.835044 -0.964810 -6.253844 17.522754 -4.400179 -0.705942 -10.808619 -0.495895 -0.299665 2.344034 1.897969 -0.362076 8.609368 -5.201068 -0.936729 -0.852154 8.041821 -1.608992 4.801154 3.523772 -0.795559 1.814217 0.000000 0.000000 0.000000 -0.084238 -0.262444 -0.767281 7.909612 -13.406305 0.931086 7.456707 40.201931 -8.099851 0.000000 0.000000 0.000000 -7.125000 0.000000 0.000000 -16.467803 37.661276 -3.075870 0.000000 0.000000 0.000000 0.668821 3.677695 2.489077 -13.518264 -22.041818 -2.644618 0.288499 34.249299 4.689757 0.000000 0.000000 0.000000 7.125000 0.000000 0.000000 21.836128 33.966260 6.304259
-0.680431 16.408671 -3.851497 -181.969000 -36.553231 -173.849596 0.000000 0.000000 0.000000 -24.642144 0.466023 -21.394060 1.119128 6.719975 18.888518 -0.572585 -13.774948 9.102828 0.520364 4.622797 12.835931 0.000000 0.000000 0.000000 16.557145 -3.287683 -17.751012 -11.939557 -18.360956 65.792590 -0.005547 0.125484 1.069868 -0.953082 -6.216815 17.414830 -4.985058 -0.882188 -10.349543 -0.483530 -0.480240 2.520022 2.209287 -0.483082 8.556193 -5.362426 -0.924650 -0.918750 8.099606 -1.572949 4.621898 3.574541 -0.777085 1.768372 0.000000 0.000000 0.000000 -0.072388 -0.922446 -0.724299 7.854301 -13.316383 0.918290 7.764990 40.891412 -7.678013 0.000000 0.000000 0.000000 -7.125000 0.000000 0.000000 -16.115961 37.273844 -3.163831 0.000000 0.000000 0.000000 0.349661 3.645016 2.986715 -13.592575 -22.149300 -2.672586 -0.061770 34.227844 4.660154 0.000000 0.000000 0.000000 7.125000 0.000000 0.000000 21.557365 33.957809 6.217849
-0.799519 16.405191 -3.967839 -182.348750 -36.742049 -173.817442 0.000000 0.000000 0.000000 -25.112610 0.857547 -20.475192 1.097622 6.657317 18.704032 -0.640599 -14.375318 8.814255 0.516659 4.607030 12.791128 0.000000 0.000000 0.000000 16.059148 -3.096750 -19.664713 -12.606932 -18.632749 67.897221 -0.006509 0.050695 -1.116235 -1.036642 -6.473761 18.166175 -5.384116 -1.087422 -10.060184 -0.444263 -0.720254 2.647643 2.434471 -0.624530 8.554786 -5.237426 -0.926982 -0.806321 7.902057 -1.555505 4.397371 3.479103 -0.770669 1.668170 0.000000 0.000000 0.000000 -0.065991 -1.556339 -0.990763 7.855992 -13.319078 0.918629 7.993153 41.294816 -7.515561 0.000000 0.000000 0.000000 -7.125000 0.000000 0.000000 -15.891063 37.131285 -3.174721 0.000000 0.000000 0.000000 0.077853 3.609149 3.182977 -13.671488 -22.263063 -2.702393 -0.441093 34.284799 4.617512 0.000000 0.000000 0.000000 7.125000 0.000000 0.000000 21.252563 33.938470 6.129249
-0.917569 16.403246 -4.081943 -182.540865 -37.041613 -173.806000 0.000000 0.000000 0.000000 -25.393644 1.161877 -19.711581 1.089965 6.634857 18.637954 -0.712993 -15.019311 8.620444 0.538561 4.701394 13.058863 0.000000 0.000000 0.000000 15.761208 -2.793591 -21.590054 -13.081148 -18.809721 69.375903 -0.024710 0.506712 -2.719958 -0.890138 -5.996978 16.780818 -5.540002 -1.249124 -9.861842 -0.408402 -0.929861 2.736628 2.524876 -0.737647 8.558527 -4.881446 -0.961730 -0.558635 7.595505 -1.588237 4.158864 3.301060 -0.790808 1.538138 0.000000 0.000000 0.000000 0.052263 -2.152990 -2.155070 7.899599 -13.389987 0.928750 8.268516 40.917072 -7.612593 0.000000 0.000000 0.000000 -7.125000 0.000000 0.000000 -15.685962 37.243497 -3.087014 0.000000 0.000000 0.000000 -0.018898 3.569714 2.821237 -13.735408 -22.355099 -2.726674 -0.669433 34.452538 4.594341 0.000000 0.000000 0.000000 7.125000 0.000000 0.000000 21.069564 33.929129 6.074914
